<svg width="84.84px" height="73.93px"
  viewBox="0 0 169 147" version="1.1" xmlns="http://www.w3.org/2000/svg">
  <g id="Page-1" stroke="none" stroke-width="1" fill="none" fill-rule="evenodd">
    <g id="Social-Brothers---logo" fill="#E95E30">
      <path
        d="M163.838983,51.7952579 C157.938983,42.4952579 149.938983,37.4952579 137.538983,34.8952579 C137.438983,25.5952579 134.538983,20.0952579 131.638983,15.3952579 C121.838983,-0.604742144 100.138983,-4.00474214 85.9389825,4.59525786 L55.5389825,23.3952579 L55.5389825,23.3952579 L19.2389825,45.7952579 L19.0389825,45.4952579 L19.1389825,45.6952579 C3.53898252,55.2952579 -6.76101748,74.1952579 5.23898252,94.0952579 C14.3389825,108.795258 35.9389825,117.195258 53.6389825,106.095258 C58.8389825,102.895258 65.5389825,102.295258 70.0389825,109.695258 C73.9389825,115.795258 70.9389825,122.495258 64.5389825,125.795258 L77.7389825,146.995258 C94.6389825,136.995258 103.438983,115.895258 91.8389825,96.9952579 C80.4389825,78.2952579 56.9389825,76.4952579 42.8389825,85.3952579 C37.6389825,88.5952579 29.5389825,86.9952579 26.3389825,81.6952579 C22.1389825,74.5952579 25.6389825,68.8952579 31.2389825,65.4952579 L31.2389825,65.4952579 L67.2389825,43.2952579 L67.2389825,43.2952579 L96.2389825,25.7952579 C110.238983,17.1952579 122.838983,35.8952579 108.138983,44.7952579 L100.838983,49.4952579 L112.838983,68.9952579 L125.838983,61.1952579 C138.738983,53.1952579 151.138983,71.5952579 137.238983,80.2952579 L103.138983,101.295258 L115.738983,121.695258 L153.638983,98.6952579 C163.838983,92.1952579 175.438983,70.2952579 163.838983,51.7952579 Z"
        id="Path"
      />
    </g>
  </g>
</svg>
